<svg xmlns="http://www.w3.org/2000/svg" width="512" height="512" viewBox="0 0 512 512">
  <defs>
    <linearGradient id="bg" x1="0" y1="0" x2="1" y2="1">
      <stop offset="0" stop-color="#2dd4bf"/>
      <stop offset="1" stop-color="#10b981"/>
    </linearGradient>
  </defs>
  <rect x="0" y="0" width="512" height="512" rx="112" fill="url(#bg)"/>
  <path d="M 120,402 C 76,402 76,338 120,334 C 115,268 212,248 246,298 C 270,248 362,254 366,318 C 418,310 424,402 374,406 Z" fill="#ffffff" fill-opacity="0.55"/>
  <path d="M 256,88 C 180,88 132,136 132,212 C 132,268 152,320 172,360 C 186,388 218,394 230,366 C 240,340 248,292 256,292 C 264,292 272,340 282,366 C 294,394 326,388 340,360 C 360,320 380,268 380,212 C 380,136 332,88 256,88 Z" fill="#ffffff"/>
</svg>
